<svg width="316" height="194" viewBox="0 0 316 194" fill="none" xmlns="http://www.w3.org/2000/svg">
<path d="M11.1143 30.7336L12.3291 28.5209C13.0539 27.2007 14.6641 26.6489 16.0462 27.2469V27.2469C17.4122 27.838 19.0092 27.2974 19.746 26.0042V26.0042C20.4887 24.7007 22.0985 24.1557 23.4754 24.7515V24.7515C24.8523 25.3473 26.4569 24.8115 27.1996 23.508V23.508C27.9423 22.2044 29.5469 21.6686 30.9238 22.2644V22.2644C32.3007 22.8602 33.9053 22.3244 34.648 21.0209V21.0209C35.3907 19.7173 36.9953 19.1815 38.3722 19.7773V19.7773C39.7491 20.3731 41.3537 19.8373 42.0964 18.5338V18.5338C42.8391 17.2302 44.4437 16.6944 45.8206 17.2902L48.2399 18.337" stroke="#4A5375" stroke-width="3"/>
<path d="M1.83204 148L3.11367 150.976C3.87829 152.752 5.86835 153.654 7.70761 153.059V153.059C9.52531 152.47 11.4999 153.357 12.2832 155.099V155.099C13.0728 156.856 15.0632 157.749 16.8954 157.156V157.156C18.7277 156.563 20.7125 157.444 21.5021 159.2V159.2C22.2917 160.957 24.2766 161.838 26.1088 161.245V161.245C27.9411 160.652 29.926 161.533 30.7155 163.29V163.29C31.5051 165.046 33.49 165.927 35.3222 165.334V165.334C37.1545 164.741 39.1394 165.622 39.9289 167.379V167.379C40.7185 169.135 42.7034 170.016 44.5356 169.423L47.755 168.381" stroke="white" stroke-width="3"/>
<path d="M120.662 147.794C119.919 147.429 119.02 147.735 118.654 148.478C118.288 149.221 118.595 150.12 119.338 150.486L120 149.14L120.662 147.794ZM122.732 150.484L122.069 151.83L122.732 150.484ZM166.643 135.516C166.376 134.732 165.523 134.313 164.739 134.58L151.962 138.94C151.178 139.207 150.76 140.059 151.027 140.844C151.295 141.628 152.147 142.046 152.931 141.779L164.288 137.904L168.163 149.261C168.431 150.045 169.283 150.464 170.067 150.196C170.851 149.929 171.27 149.077 171.002 148.292L166.643 135.516ZM120 149.14L119.338 150.486L122.069 151.83L122.732 150.484L123.394 149.138L120.662 147.794L120 149.14ZM122.732 150.484L122.069 151.83C138.546 159.935 158.474 153.143 166.57 136.661L165.224 136L163.877 135.339C156.512 150.332 138.383 156.512 123.394 149.138L122.732 150.484Z" fill="white"/>
<circle cx="56" cy="36" r="6" fill="white"/>
<circle cx="189.7" cy="173.081" r="5.5" transform="rotate(-62.7476 189.7 173.081)" fill="#4A5375" stroke="#4A5375"/>
<circle cx="307.371" cy="160.362" r="5.5" transform="rotate(54.7966 307.371 160.362)" fill="#4A5375" stroke="#4A5375"/>
<circle cx="266.875" cy="15.3615" r="5.5" transform="rotate(54.7966 266.875 15.3615)" fill="white" stroke="#4A5375"/>
<circle cx="40" cy="39" r="2.5" fill="#4A5375" stroke="#4A5375"/>
<circle cx="185.041" cy="189.041" r="3" transform="rotate(-62.7476 185.041 189.041)" fill="white"/>
<circle cx="295.696" cy="149.181" r="2.5" transform="rotate(54.7966 295.696 149.181)" fill="white" stroke="#4A5375"/>
<circle cx="255.2" cy="4.18077" r="3" transform="rotate(54.7966 255.2 4.18077)" fill="white"/>
<circle cx="291.181" cy="159.685" r="1.42683" transform="rotate(54.7966 291.181 159.685)" fill="white" stroke="#4A5375"/>
<circle cx="250.685" cy="14.6852" r="1.42683" transform="rotate(54.7966 250.685 14.6852)" fill="#4A5375" stroke="#4A5375"/>
</svg>
