<svg width="93" height="10" viewBox="0 0 93 10" fill="none" xmlns="http://www.w3.org/2000/svg">
<path d="M2 8L6.21364 4.10244C8.72749 1.77715 12.5979 1.74654 15.1482 4.03179V4.03179C17.6686 6.29024 21.5024 6.27441 24.0228 4.01596V4.01596C26.5634 1.73942 30.4279 1.72346 32.9685 4V4C35.5091 6.27654 39.3559 6.27654 41.8965 4V4C44.4371 1.72346 48.2838 1.72346 50.8244 4V4C53.365 6.27654 57.2117 6.27654 59.7523 4V4C62.2929 1.72346 66.1396 1.72346 68.6802 4V4C71.2208 6.27654 75.0675 6.27654 77.6081 4V4C80.1487 1.72346 83.9954 1.72346 86.536 4L91 8" stroke="white" stroke-width="3" stroke-linecap="round"/>
</svg>
