<svg width="46" height="23" viewBox="0 0 46 23" fill="none" xmlns="http://www.w3.org/2000/svg">
<path d="M2.18945 9.71582C1.36103 9.71582 0.689453 10.3874 0.689453 11.2158C0.689453 12.0442 1.36103 12.7158 2.18945 12.7158L2.18945 11.2158L2.18945 9.71582ZM45.2501 12.2765C45.8359 11.6907 45.8359 10.741 45.2501 10.1552L35.7042 0.609222C35.1184 0.0234347 34.1686 0.0234346 33.5829 0.609221C32.9971 1.19501 32.9971 2.14476 33.5829 2.73054L42.0681 11.2158L33.5829 19.7011C32.9971 20.2869 32.9971 21.2366 33.5829 21.8224C34.1686 22.4082 35.1184 22.4082 35.7042 21.8224L45.2501 12.2765ZM2.18945 11.2158L2.18945 12.7158L44.1895 12.7158L44.1895 11.2158L44.1895 9.71582L2.18945 9.71582L2.18945 11.2158Z" fill="white"/>
</svg>
